<?xml version="1.0" encoding="UTF-8" standalone="no"?>
<svg width="49px" height="49px" viewBox="0 0 49 49" version="1.1" xmlns="http://www.w3.org/2000/svg" xmlns:xlink="http://www.w3.org/1999/xlink" xmlns:sketch="http://www.bohemiancoding.com/sketch/ns">
    <!-- Generator: Sketch 3.5.2 (25235) - http://www.bohemiancoding.com/sketch -->
    <title>mask-icon</title>
    <desc>Created with Sketch.</desc>
    <defs></defs>
    <g id="Icon" stroke="none" stroke-width="1" fill="none" fill-rule="evenodd" sketch:type="MSPage">
        <g id="mask-icon" sketch:type="MSArtboardGroup" stroke="#000000" fill="#000000">
            <rect id="Rectangle-5" sketch:type="MSShapeGroup" x="8" y="39.3678415" width="8.06000042" height="8.75" rx="3"></rect>
            <rect id="Rectangle-5" sketch:type="MSShapeGroup" x="33.4125" y="39.3699989" width="8.06270373" height="8.75" rx="3"></rect>
            <path d="M24.5,2 C15.7049606,1.99999991 10.7761282,2.96771442 10.7761282,2.96771442 C8.64147688,3.28095682 6.70829876,5.27955747 6.47017854,7.4177973 L5.12391361,22.7489144 C5.05547801,24.9043425 5,28.4126991 5,30.5547003 L5,38.6778079 C5,40.8421715 6.75151414,42.5967348 8.91803321,42.5967348 L40.0819668,42.5967348 C42.2458368,42.5967348 44,40.8486395 44,38.6937043 L44,30.5597816 C44,28.4013868 43.9755644,24.9003451 43.898932,22.7464198 L42.7759311,7.42688613 C42.5703422,5.2773962 40.6766246,3.27103328 38.5255693,2.98075972 C38.5255693,2.98075972 33.2950394,2.00000009 24.5,2 Z M30.1601623,30.5033906 C29.061026,30.5033906 28.17,31.3899454 28.17,32.5093096 L28.17,35.4974715 C28.17,36.60531 29.0609611,37.5033906 30.1601623,37.5033906 L36.6298375,37.5033906 C37.7289738,37.5033906 38.6199998,36.6168357 38.6199998,35.4974715 L38.6199998,32.5093096 C38.6199998,31.4014711 37.7290387,30.5033906 36.6298375,30.5033906 L30.1601623,30.5033906 Z M12.3701623,30.4890228 C11.271026,30.4890228 10.38,31.3755777 10.38,32.4949419 L10.38,35.4831038 C10.38,36.5909423 11.2709611,37.4890228 12.3701623,37.4890228 L18.8398375,37.4890228 C19.9389738,37.4890228 20.8299998,36.602468 20.8299998,35.4831038 L20.8299998,32.4949419 C20.8299998,31.3871034 19.9390387,30.4890228 18.8398375,30.4890228 L12.3701623,30.4890228 Z M14.6766231,11.6737425 C13.4315217,11.6737425 12.3487703,12.6687605 12.2567759,13.9158915 L11.5437688,23.5818422 C11.4524255,24.8201469 12.3825014,25.8239912 13.6194661,25.8239912 L35.1586588,25.8239912 C36.3963781,25.8239912 37.3440753,24.817684 37.275704,23.5818422 L36.7409487,13.9158915 C36.6724412,12.6775868 35.6080906,11.6737425 34.3624494,11.6737425 L14.6766231,11.6737425 Z" id="Path" sketch:type="MSShapeGroup"></path>
        </g>
    </g>
</svg>